<?xml version="1.0" encoding="utf-8"?>
<!-- Generator: Adobe Illustrator 22.0.0, SVG Export Plug-In . SVG Version: 6.00 Build 0)  -->
<svg version="1.1" id="Layer_1" xmlns="http://www.w3.org/2000/svg" xmlns:xlink="http://www.w3.org/1999/xlink" x="0px" y="0px"
	 viewBox="0 0 283.5 283.5" style="enable-background:new 0 0 283.5 283.5;" xml:space="preserve">
<style type="text/css">
	.st0{fill:none;stroke:#020203;stroke-width:38;stroke-miterlimit:10;}
	.st1{fill:none;}
	.st2{fill:none;stroke:#020203;stroke-width:40;stroke-miterlimit:10;}
</style>
<path class="st0" d="M155,263.1c-9.6-9.6-77.4-77.2-78.5-78.3c-17.6-17.2-28.3-41.4-27.9-68c0.8-50.1,41.7-91,91.8-91.7
	c52.1-0.7,94.5,41.3,94.5,93.2c0,51.8-45,95-91.3,93.2c-39.6-1.6-62.3-21.8-67.1-26.6"/>
<line class="st1" x1="321.9" y1="96.5" x2="144.5" y2="273.8"/>
<path class="st2" d="M94,166.6c-11.7-11.4-16.1-24.5-17.4-28.4c0,0-3.2-10.7-3.1-21.3c0.6-36.7,30.5-66.6,67.2-67.1
	c37.5-0.5,69.1,30.4,69.2,68.2c0,39.9-35.3,67-66.8,68.2C115.6,187.1,95.7,168.2,94,166.6z"/>
<path class="st2" d="M123.9,147.7"/>
</svg>
