<!--?xml version="1.0" encoding="utf-8"?-->
<!-- Generator: Adobe Illustrator 22.0.0, SVG Export Plug-In . SVG Version: 6.00 Build 0)  -->
<svg version="1.1" id="Layer_1" xmlns="http://www.w3.org/2000/svg" xmlns:xlink="http://www.w3.org/1999/xlink" x="0px" y="0px" viewBox="0 0 283.5 283.5" style="" xml:space="preserve">
<style type="text/css">
	.st0{fill:none;stroke:#020203;stroke-width:38;stroke-miterlimit:10;}
	.st1{fill:none;}
	.st2{fill:none;stroke:#020203;stroke-width:40;stroke-miterlimit:10;}
</style>
<path class="st0 rTUTOsjq_0" d="M155,263.1c-9.6-9.6-77.4-77.2-78.5-78.3c-17.6-17.2-28.3-41.4-27.9-68c0.8-50.1,41.7-91,91.8-91.7
	c52.1-0.7,94.5,41.3,94.5,93.2c0,51.8-45,95-91.3,93.2c-39.6-1.6-62.3-21.8-67.1-26.6"></path>
<path class="st1 rTUTOsjq_1" d="M321.9,96.5L144.5,273.8"></path>
<path class="st2 rTUTOsjq_2" d="M94,166.6c-11.7-11.4-16.1-24.5-17.4-28.4c0,0-3.2-10.7-3.1-21.3c0.6-36.7,30.5-66.6,67.2-67.1
	c37.5-0.5,69.1,30.4,69.2,68.2c0,39.9-35.3,67-66.8,68.2C115.6,187.1,95.7,168.2,94,166.6z"></path>
<path class="st2 rTUTOsjq_3" d="M123.9,147.7"></path>
<style data-made-with="vivus-instant">.rTUTOsjq_0{stroke-dasharray:697 699;stroke-dashoffset:698;animation:rTUTOsjq_draw 758ms linear 0ms forwards;}.rTUTOsjq_1{stroke-dasharray:251 253;stroke-dashoffset:252;animation:rTUTOsjq_draw 273ms linear 758ms forwards;}.rTUTOsjq_2{stroke-dasharray:428 430;stroke-dashoffset:429;animation:rTUTOsjq_draw 466ms linear 1032ms forwards;}.rTUTOsjq_3{stroke-dasharray:0 2;stroke-dashoffset:1;animation:rTUTOsjq_draw 1ms linear 1498ms forwards;}@keyframes rTUTOsjq_draw{100%{stroke-dashoffset:0;}}@keyframes rTUTOsjq_fade{0%{stroke-opacity:1;}92.98245614035088%{stroke-opacity:1;}100%{stroke-opacity:0;}}</style></svg>
